<svg width="95" height="13" viewBox="0 0 95 13" xmlns="http://www.w3.org/2000/svg"><path d="M.248.672H3.4L6.344 8.72h.048L9.304.672h3.168V12h-2V2.896h-.032L7 12H5.592L2.2 2.896h-.032V12H.248V.672zm17.742 0h7.504v1.76h-5.488v2.88h5.2v1.696h-5.2v3.2h5.776V12H17.99V.672zm16.446 4.88c.288 0 .576-.021.864-.064a2.51 2.51 0 00.776-.24c.23-.117.42-.285.568-.504.15-.219.224-.499.224-.84 0-.31-.069-.563-.208-.76a1.549 1.549 0 00-.528-.472 2.208 2.208 0 00-.728-.24 5.11 5.11 0 00-.792-.064h-1.824v3.184h1.648zM30.772.672h3.936A7.09 7.09 0 0136.26.84c.502.112.947.296 1.336.552.39.256.702.592.936 1.008.235.416.352.923.352 1.52 0 .821-.232 1.49-.696 2.008-.464.517-1.096.867-1.896 1.048L39.316 12h-2.432L34.26 7.2h-1.472V12h-2.016V.672zm21.263 2.656a2.581 2.581 0 00-1.168-.888 3.87 3.87 0 00-1.408-.28c-.587 0-1.12.107-1.6.32a3.75 3.75 0 00-1.24.88 3.91 3.91 0 00-.8 1.312 4.641 4.641 0 00-.28 1.632c0 .619.09 1.184.272 1.696.181.512.44.952.776 1.32.336.368.738.653 1.208.856a3.95 3.95 0 001.584.304c.608 0 1.146-.12 1.616-.36.469-.24.848-.557 1.136-.952l1.616 1.136a5.178 5.178 0 01-1.84 1.464c-.726.347-1.574.52-2.544.52-.886 0-1.699-.147-2.44-.44a5.621 5.621 0 01-1.912-1.232 5.609 5.609 0 01-1.248-1.888c-.299-.73-.448-1.539-.448-2.424 0-.907.157-1.725.472-2.456a5.47 5.47 0 011.296-1.864A5.754 5.754 0 0147.027.8a6.931 6.931 0 013.568-.312c.394.07.773.176 1.136.32a5.54 5.54 0 011.024.536c.32.213.592.47.816.768l-1.536 1.216zM67.04 7.84c0 .683-.117 1.299-.352 1.848a4.143 4.143 0 01-.96 1.4c-.405.384-.885.68-1.44.888a5.109 5.109 0 01-1.808.312c-.65 0-1.253-.104-1.808-.312a4.31 4.31 0 01-1.448-.888c-.41-.384-.73-.85-.96-1.4-.23-.55-.344-1.165-.344-1.848V.672h2.016V7.76c0 .33.043.659.128.984.085.325.227.616.424.872.197.256.459.464.784.624.325.16.728.24 1.208.24s.883-.08 1.208-.24c.325-.16.587-.368.784-.624.197-.256.339-.547.424-.872.085-.325.128-.653.128-.984V.672h2.016V7.84zm9.086-2.288c.288 0 .576-.021.864-.064a2.51 2.51 0 00.776-.24c.23-.117.419-.285.568-.504.15-.219.224-.499.224-.84 0-.31-.07-.563-.208-.76a1.549 1.549 0 00-.528-.472 2.208 2.208 0 00-.728-.24 5.11 5.11 0 00-.792-.064H74.48v3.184h1.648zM72.463.672H76.4c.533 0 1.05.056 1.552.168.501.112.947.296 1.336.552.39.256.701.592.936 1.008.235.416.352.923.352 1.52 0 .821-.232 1.49-.696 2.008-.464.517-1.096.867-1.896 1.048L81.007 12h-2.432l-2.624-4.8H74.48V12h-2.016V.672zm15.71 6.416L83.917.672h2.464L89.23 5.44 92.11.672h2.336L90.19 7.088V12h-2.016V7.088z" fill="currentColor" fill-rule="evenodd"></path></svg>